<?xml version="1.0" encoding="UTF-8" standalone="no"?>
<svg
   xmlns:dc="http://purl.org/dc/elements/1.1/"
   xmlns:cc="http://creativecommons.org/ns#"
   xmlns:rdf="http://www.w3.org/1999/02/22-rdf-syntax-ns#"
   xmlns:svg="http://www.w3.org/2000/svg"
   xmlns="http://www.w3.org/2000/svg"
   xmlns:xlink="http://www.w3.org/1999/xlink"
   version="1.1"
   id="svg2816"
   height="128"
   width="128">
  <defs
     id="defs2818">
    <linearGradient
       id="linearGradient3933">
      <stop
         id="stop3935"
         offset="0"
         style="stop-color:#ffffff;stop-opacity:1;" />
      <stop
         style="stop-color:#e4e4e4;stop-opacity:1;"
         offset="0.70937568"
         id="stop3937" />
      <stop
         id="stop3939"
         offset="1"
         style="stop-color:#a5a5a5;stop-opacity:1" />
    </linearGradient>
    <linearGradient
       id="linearGradient3923">
      <stop
         id="stop3925"
         offset="0"
         style="stop-color:#424242;stop-opacity:1;" />
      <stop
         id="stop3927"
         offset="1"
         style="stop-color:#545454;stop-opacity:0;" />
    </linearGradient>
    <linearGradient
       id="linearGradient3752">
      <stop
         id="stop3754"
         offset="0"
         style="stop-color:#00485b;stop-opacity:1;" />
      <stop
         id="stop3756"
         offset="1"
         style="stop-color:#2d9eb2;stop-opacity:1;" />
    </linearGradient>
    <linearGradient
       gradientUnits="userSpaceOnUse"
       y2="-10.769944"
       x2="58.321106"
       y1="144.09308"
       x1="58.321106"
       id="linearGradient3929"
       xlink:href="#linearGradient3923" />
    <linearGradient
       spreadMethod="reflect"
       y2="26.667299"
       x2="74.666199"
       y1="74.667"
       x1="74.666199"
       gradientUnits="userSpaceOnUse"
       id="linearGradient3931"
       xlink:href="#linearGradient3933" />
    <radialGradient
       gradientUnits="userSpaceOnUse"
       gradientTransform="matrix(1.468753,0,0,0.71759799,-45.417311,-72.813165)"
       r="5.4579992"
       fy="53.498962"
       fx="104.03643"
       cy="50.604401"
       cx="101.208"
       id="radialGradient3863"
       xlink:href="#linearGradient3752" />
    <radialGradient
       r="5.4579992"
       fy="52.775322"
       fx="104.10256"
       cy="50.604401"
       cx="101.208"
       gradientTransform="matrix(1.4351961,0,0,0.71759797,-65.337223,-72.813167)"
       gradientUnits="userSpaceOnUse"
       id="radialGradient3867"
       xlink:href="#linearGradient3752" />
  </defs>
  <metadata
     id="metadata2821">
    <rdf:RDF>
      <cc:Work
         rdf:about="">
        <dc:format>image/svg+xml</dc:format>
        <dc:type
           rdf:resource="http://purl.org/dc/dcmitype/StillImage" />
        <dc:title></dc:title>
      </cc:Work>
    </rdf:RDF>
  </metadata>
  <g
     transform="translate(0,96)"
     id="layer1">
    <path
       id="path3898"
       d="m 15.82285,32.3335 c -1.922547,-0.0064 -3.805056,1.135675 -4.6875,2.84375 l -9.21875,22.979 c -0.6146231,1.532032 -1.491805,2.986481 -1.78125,4.65625 -0.125246,1.131566 -0.106167,1.179589 0,0.125 -1.24e-4,0.02083 -1.24e-4,0.04167 0,0.0625 -0.01739,0.15568 -0.02782,0.312138 -0.03125,0.46875 l 0,0.03125 C 0.092346,63.66886 0.07285,63.760406 0.07285,64 l 0,37.65585 c 0,5.78792 4.805829,10.59373 10.59375,10.59375 35.555333,1.1e-4 106.666,4e-4 106.666,4e-4 5.78792,0 10.59375,-4.80583 10.59375,-10.59375 l 0,-37.65585 c 0.0184,-1.863036 -1.39889,-4.183669 -2.21875,-6.21875 L 116.61385,35.2089 c -0.87391,-1.719597 -2.75858,-2.875531 -4.6875,-2.875 l -96.1035,-4e-4 z"
       style="opacity:1;fill:url(#linearGradient3929);fill-opacity:1;stroke:none"
       transform="translate(0,-96)" />
    <path
       id="rect3089"
       transform="translate(0,-96)"
       d="M 18.82285,40 9.6041,60.5625 c -0.662187,0.783026 -1.12858,1.766776 -1.25,2.84375 -0.0023,0.02078 0.0021,0.04164 0,0.0625 l 0,0.03125 C 8.338,63.669485 8.32285,63.82616 8.32285,64 l 0,34.90625 c 0,2.95465 2.3891,5.34375 5.34375,5.34375 l 101.266,0 c 2.95465,0 5.34375,-2.3891 5.34375,-5.34375 l 0,-34.90625 c 0,-1.517861 -0.64515,-2.874303 -1.65625,-3.84375 L 109.5993,40 18.82285,40 z"
       style="fill:url(#linearGradient3931);fill-opacity:1;stroke:none" />
    <rect
       ry="3.3723915"
       rx="5.4168596"
       y="-15.75"
       x="15.9999"
       height="13.3335"
       width="95.999397"
       id="rect3869"
       style="fill:#ffffff;fill-opacity:0.73480667;stroke:none" />
    <rect
       ry="0"
       rx="0"
       y="-16"
       x="21.3332"
       height="10.666599"
       width="85.332794"
       id="rect3885"
       style="fill:#000000;fill-opacity:1;stroke:none" />
    <rect
       ry="2.6066103"
       rx="2.8717754"
       y="-53.332802"
       x="26.6665"
       height="5.3333015"
       width="74.666199"
       id="rect3889"
       style="fill:#000000;fill-opacity:0.63583817;stroke:none" />
    <path
       id="path3921"
       d="m 33.01025,-16.249986 c -2.580496,-0.0068 -5.012094,2.450949 -5.4375,5.496093 L 21.229,26.33539 c -0.262415,1.880713 0.200574,3.88856 1.231863,5.342256 1.031289,1.453685 2.611953,2.326539 4.205637,2.322364 l 74.6662,0 c 1.59368,0.0036 3.17435,-0.868679 4.20564,-2.322364 1.03129,-1.453696 1.49427,-3.461543 1.23186,-5.342256 l -6.34375,-37.089283 c -0.42541,-3.045144 -2.857004,-5.502945 -5.4375,-5.496093 l -61.9787,0 z"
       style="fill:#000000;fill-opacity:0.24861881;stroke:none" />
    <path
       id="path3917"
       d="M 31.9998,-12.25 26.6665,24 l 74.84596,0 -5.333303,-36.25 -64.179357,0 z"
       style="fill:#ffffff;fill-opacity:1;stroke:none" />
    <path
       id="path3945"
       d="m 36.9998,-96 c -2.617922,2.97e-4 -4.999738,2.700982 -5,5.669382 l 0,36.661736 c 2.62e-4,2.9684 2.382078,5.669085 5,5.669382 l 53.9996,0 c 2.617922,-2.97e-4 4.999738,-2.700982 5,-5.669382 l 0,-36.661736 c -2.62e-4,-2.9684 -2.382078,-5.669085 -5,-5.669382 l -53.9996,0 z"
       style="fill:#000000;fill-opacity:0.24309393;stroke:none" />
    <path
       style="fill:#ffffff;fill-opacity:1;stroke:none"
       d="M 39.9992,-51.681626 39.9992,-88 88,-88 l 0,36.6672 -48.0008,-0.348826 z"
       id="path3941" />
    <rect
       style="fill:#ffffff;fill-opacity:1;stroke:none"
       id="rect3977"
       width="108.5826"
       height="7.9171009"
       x="9.0833006"
       y="-39.916702"
       rx="2.8784027"
       ry="4.197104" />
    <rect
       ry="3.6997674"
       rx="4.6332331"
       y="-40.416199"
       x="95.215797"
       height="7.8332987"
       width="16.032906"
       id="rect3855"
       style="fill:url(#radialGradient3863);fill-opacity:1;stroke:none" />
  </g>
</svg>
